<?xml version="1.0" standalone="no"?>
<!DOCTYPE svg PUBLIC "-//W3C//DTD SVG 20010904//EN"
 "http://www.w3.org/TR/2001/REC-SVG-20010904/DTD/svg10.dtd">
<svg version="1.0" xmlns="http://www.w3.org/2000/svg"
 width="1024.000000pt" height="624.000000pt" viewBox="0 0 1024.000000 624.000000"
 preserveAspectRatio="xMidYMid meet">

<g transform="translate(0.000000,624.000000) scale(0.100000,-0.100000)"
fill="#000000" stroke="none">
<path d="M4590 4529 c-88 -10 -230 -50 -316 -89 -260 -117 -499 -393 -602
-696 -30 -86 -62 -250 -72 -368 -5 -56 -10 -362 -10 -681 0 -446 -3 -590 -13
-624 l-13 -43 -19 28 c-72 115 -149 181 -241 209 -27 8 -86 15 -130 15 -92 0
-94 1 -184 109 -25 30 -50 59 -55 65 -34 36 -85 105 -85 113 0 5 33 27 73 48
145 76 227 149 309 275 106 163 162 339 174 540 7 105 -20 277 -57 374 -107
279 -305 497 -564 621 -92 44 -139 59 -268 85 -145 30 -392 25 -537 -10 -134
-32 -350 -136 -335 -160 3 -6 -2 -10 -12 -10 -24 0 -65 -29 -58 -40 3 -5 1
-11 -4 -15 -6 -3 -8 -12 -4 -21 3 -9 0 -14 -8 -12 -8 2 -17 10 -20 17 -4 11
-7 9 -11 -7 -4 -14 -2 -22 6 -22 32 0 68 -71 44 -86 -7 -4 -8 -3 -4 4 4 7 0
22 -8 34 -15 21 -16 21 -18 3 0 -11 0 -29 0 -40 2 -15 0 -17 -7 -6 -5 7 -14
10 -20 7 -15 -10 -14 -26 2 -26 16 0 55 -40 41 -41 -5 0 0 -5 11 -10 l20 -9
-20 3 c-11 2 -19 9 -17 15 3 17 -8 15 -30 -5 -11 -9 -18 -11 -18 -5 0 7 -7 12
-15 12 -9 0 -12 -6 -8 -17 4 -10 2 -14 -4 -10 -7 5 -9 0 -6 -13 3 -11 9 -18
13 -15 4 3 13 -2 20 -10 9 -11 17 -12 31 -5 15 8 17 7 13 -4 -9 -24 -46 -31
-59 -12 -17 22 -28 20 -22 -4 3 -11 1 -20 -5 -20 -5 0 -9 10 -8 23 3 34 1 47
-9 47 -4 0 -6 -11 -4 -24 4 -17 0 -25 -16 -29 -12 -3 -24 -1 -27 4 -3 5 -11 9
-17 9 -16 -1 23 -23 48 -28 11 -2 37 -4 57 -4 21 -1 35 -5 32 -10 -3 -5 -12
-7 -18 -5 -18 7 -44 -43 -39 -75 2 -16 -1 -28 -6 -28 -6 0 -8 6 -5 14 3 8 0
17 -7 22 -9 5 -11 -1 -6 -24 4 -19 2 -32 -3 -32 -6 0 -11 7 -11 15 -1 8 -2 21
-3 28 -1 7 -11 11 -25 9 -15 -2 -21 0 -17 7 4 6 0 11 -10 11 -13 0 -14 -3 -4
-15 7 -8 19 -15 26 -15 8 0 14 -4 14 -10 0 -5 9 -19 20 -30 19 -19 19 -20 2
-20 -11 0 -24 10 -31 23 -6 12 -10 14 -7 5 3 -9 -2 -19 -10 -22 -8 -3 -14 -11
-13 -18 0 -10 2 -10 6 0 2 6 9 12 14 12 6 0 8 -4 4 -9 -3 -6 4 -8 17 -6 12 3
25 -1 30 -8 4 -6 12 -12 18 -12 5 0 10 -3 10 -7 0 -5 0 -13 0 -19 0 -5 -5 -7
-11 -3 -7 4 -7 -1 1 -16 12 -22 5 -43 -8 -24 -9 15 -40 14 -46 -1 -2 -6 2 -12
10 -12 8 0 14 5 14 11 0 6 5 4 10 -4 14 -22 12 -30 -5 -24 -8 4 -15 1 -15 -6
0 -6 4 -8 10 -5 5 3 10 1 10 -5 0 -7 5 -6 14 2 8 7 12 16 9 21 -2 4 3 7 11 7
12 0 14 -5 6 -25 -8 -20 -7 -23 7 -18 11 5 14 3 9 -6 -5 -7 -17 -10 -28 -8
-12 4 -18 1 -15 -6 2 -7 13 -11 23 -10 10 1 13 0 6 -3 -10 -5 -10 -9 -1 -20 6
-8 8 -14 3 -14 -5 -1 -20 -10 -33 -21 -17 -14 -21 -23 -14 -30 12 -12 -15 -52
-29 -43 -4 3 -8 0 -8 -5 0 -6 14 -11 31 -11 17 0 28 4 24 10 -6 9 10 14 42 13
6 0 11 8 10 18 -1 21 -22 25 -33 7 -5 -8 -10 -6 -14 8 -8 21 5 44 26 44 7 0
16 -9 19 -20 4 -11 10 -18 15 -15 4 3 10 -2 14 -10 3 -8 12 -12 20 -9 22 9 2
42 -29 50 -34 8 -36 59 -2 67 20 6 21 5 4 -8 -13 -9 -15 -15 -7 -20 9 -6 9 -9
0 -15 -8 -5 -7 -9 5 -13 9 -4 14 -3 11 2 -3 5 0 14 8 20 10 9 13 6 13 -11 -1
-33 23 -77 45 -83 19 -7 25 -25 8 -25 -5 0 -10 5 -10 10 0 21 -20 9 -35 -20
-18 -36 -38 -31 -29 7 6 23 5 24 -15 14 -12 -7 -26 -9 -31 -6 -5 3 -7 -1 -4
-9 3 -8 11 -14 17 -12 7 1 9 1 5 -1 -5 -3 -8 -11 -8 -19 0 -9 5 -12 12 -8 7 4
8 3 4 -4 -4 -7 -16 -12 -27 -12 -11 0 -22 -7 -25 -15 -5 -11 -10 -13 -19 -5
-6 5 -15 7 -18 3 -10 -9 -8 10 2 26 7 11 11 10 20 -5 6 -11 11 -13 11 -6 0 6
8 12 18 13 9 0 12 3 5 5 -7 3 -9 13 -6 22 6 16 5 16 -13 0 -14 -12 -24 -14
-37 -7 -9 6 -17 6 -17 2 0 -9 -20 19 -20 29 0 4 7 14 16 22 12 13 13 16 2 16
-8 0 -24 9 -36 20 -25 23 -29 15 -7 -14 24 -31 19 -56 -10 -56 -14 0 -25 -4
-25 -10 0 -5 -7 -6 -17 -3 -11 4 -14 3 -9 -6 5 -7 14 -10 22 -7 20 8 17 -4 -8
-33 -13 -14 -16 -20 -8 -13 23 20 33 14 25 -15 -13 -49 -14 -74 -2 -66 7 4 8
0 4 -11 -4 -9 -3 -14 2 -11 5 3 12 1 16 -5 3 -5 -1 -10 -10 -10 -9 0 -13 -4
-10 -10 3 -5 1 -10 -6 -10 -8 0 -5 -7 6 -20 16 -18 16 -20 1 -26 -24 -9 -19
-24 7 -20 17 2 21 9 18 27 -7 45 -6 54 6 52 8 -2 10 4 6 14 -6 15 -5 16 9 3 9
-8 15 -19 15 -25 -1 -5 6 -10 15 -10 24 0 35 -15 12 -16 -12 -1 -7 -4 11 -9
l30 -8 -32 -1 c-17 0 -34 -7 -37 -13 -3 -7 -4 0 -1 15 4 17 2 26 -4 23 -5 -3
-12 0 -15 6 -3 7 -4 -1 -2 -19 2 -17 7 -37 12 -44 5 -8 3 -10 -6 -4 -9 6 -10
2 -5 -16 l8 -24 -19 20 c-11 12 -15 15 -11 8 5 -6 6 -17 2 -23 -4 -6 -1 -17 5
-25 7 -8 10 -20 7 -27 -3 -8 -6 -5 -6 6 -1 15 -3 16 -16 6 -13 -11 -13 -15 -3
-21 8 -5 -1 -7 -20 -4 -22 2 -35 -1 -39 -11 -3 -7 -9 -12 -13 -9 -5 3 -11 1
-15 -5 -4 -6 -11 -8 -16 -5 -5 4 -9 1 -9 -5 0 -6 -5 -8 -12 -4 -10 6 -10 4 0
-8 11 -14 10 -18 -5 -26 -14 -8 -11 -10 16 -9 23 1 36 -3 38 -13 3 -10 2 -11
-4 -4 -5 7 -16 8 -28 4 -17 -7 -15 -9 15 -17 31 -8 33 -10 13 -15 -13 -3 -23
-2 -23 4 0 5 -5 6 -11 3 -6 -5 -4 -12 8 -22 10 -8 12 -12 6 -8 -8 4 -11 1 -7
-9 3 -9 9 -15 12 -14 26 3 32 -2 20 -16 -10 -11 -16 -11 -27 -2 -12 9 -13 8
-8 -7 5 -14 2 -20 -13 -24 -11 -3 -20 -9 -20 -14 0 -5 -5 -9 -10 -9 -6 0 -5 8
2 20 7 11 19 18 27 15 11 -4 12 -3 1 10 -7 8 -16 12 -21 9 -5 -3 -6 9 -3 26 4
20 3 30 -5 30 -7 0 -10 -4 -7 -9 10 -15 -5 -40 -20 -34 -8 3 -14 0 -14 -7 0
-6 4 -9 9 -5 6 3 15 -4 21 -15 10 -19 6 -24 -14 -21 -5 1 -6 -6 -2 -15 3 -9 9
-27 12 -40 3 -13 11 -24 16 -24 6 0 8 7 4 15 -3 8 -1 15 4 15 6 0 10 -6 10
-14 0 -8 3 -16 8 -19 4 -2 1 -2 -5 -1 -8 2 -13 -6 -13 -18 0 -21 0 -21 -15 -2
-13 18 -14 18 -8 -4 3 -12 9 -25 14 -28 5 -3 9 -12 9 -20 0 -12 -2 -12 -14 -2
-8 7 -12 15 -11 18 2 3 -1 12 -7 20 -7 11 -8 5 -4 -20 4 -18 12 -38 19 -42 7
-5 8 -8 1 -8 -18 0 -47 38 -39 52 4 7 -3 2 -14 -12 -11 -14 -21 -34 -22 -45
-6 -77 -4 -121 5 -127 8 -5 7 -8 -1 -8 -7 0 -13 -10 -13 -22 0 -17 3 -19 9
-10 7 11 9 11 14 -2 4 -9 1 -15 -6 -13 -8 1 -13 -20 -15 -71 -2 -58 0 -72 10
-66 10 6 11 5 1 -7 -9 -11 -12 -87 -13 -270 0 -270 6 -317 49 -377 11 -16 18
-31 16 -34 -10 -9 42 -48 105 -80 41 -20 198 -16 242 5 75 38 138 120 151 197
3 19 7 295 9 613 2 569 3 578 21 555 21 -25 85 -93 114 -120 27 -24 111 -55
174 -63 55 -7 55 -7 72 -54 20 -57 93 -171 189 -296 38 -49 108 -141 156 -203
97 -126 130 -169 164 -214 13 -16 39 -49 59 -71 20 -23 58 -67 85 -98 90 -103
158 -157 255 -203 114 -53 158 -66 229 -66 121 0 219 44 287 129 44 55 73 75
73 51 0 -18 115 -126 155 -145 192 -90 393 -12 457 177 8 23 14 281 18 858 7
878 5 844 56 970 92 229 290 372 534 387 85 5 103 3 173 -21 124 -42 206 -115
269 -241 25 -48 144 -412 198 -600 12 -44 26 -89 31 -100 4 -11 22 -67 39
-125 17 -58 37 -123 45 -145 28 -83 84 -272 96 -320 6 -27 16 -58 21 -68 5 -9
40 -118 78 -242 90 -290 129 -375 200 -437 78 -69 152 -104 243 -118 117 -17
219 4 314 67 99 66 163 154 220 308 38 101 157 446 288 830 168 493 163 481
174 469 5 -5 35 -83 66 -174 32 -91 87 -246 122 -345 36 -99 91 -256 123 -350
31 -93 67 -195 78 -225 11 -30 34 -95 52 -145 63 -181 94 -239 160 -304 128
-126 309 -168 495 -116 55 16 150 73 178 108 46 58 109 224 201 532 34 116 86
283 143 465 25 80 54 174 65 210 11 36 44 142 74 235 29 94 74 238 99 320 25
83 79 254 120 380 91 285 97 307 98 375 1 105 -59 225 -124 245 -11 4 -19 10
-19 15 0 13 -103 40 -155 40 -71 0 -127 -18 -181 -59 -69 -52 -96 -99 -139
-241 -21 -69 -43 -138 -50 -155 -7 -16 -18 -50 -25 -75 -6 -25 -22 -79 -34
-120 -57 -183 -88 -283 -121 -395 -20 -66 -53 -176 -75 -245 -21 -69 -50 -163
-64 -210 -14 -47 -39 -130 -56 -185 -17 -55 -45 -147 -61 -205 -16 -58 -34
-122 -39 -142 -6 -21 -14 -38 -18 -38 -4 1 -38 96 -77 213 -38 117 -76 223
-82 237 -7 14 -13 31 -13 38 0 7 -34 113 -76 235 -42 122 -82 242 -89 267 -7
25 -19 61 -26 80 -45 126 -70 200 -169 499 -117 351 -138 397 -207 443 -44 30
-131 58 -181 58 -88 0 -192 -53 -247 -124 -23 -30 -65 -128 -82 -191 -11 -44
-47 -155 -78 -245 -18 -52 -52 -156 -75 -230 -23 -74 -71 -220 -105 -325 -129
-391 -208 -631 -215 -660 -5 -16 -25 -76 -44 -133 -20 -57 -34 -108 -30 -113
8 -13 -4 -59 -15 -59 -9 0 -58 146 -166 495 -25 83 -50 161 -55 175 -5 14 -39
120 -75 235 -161 514 -219 666 -305 791 -211 306 -609 456 -1070 403z m-2980
-227 c0 -5 -7 -17 -16 -28 -8 -10 -14 -14 -11 -9 2 6 7 18 10 28 7 17 17 23
17 9z m-10 -82 c12 -8 11 -10 -7 -10 -13 0 -23 5 -23 10 0 13 11 13 30 0z
m870 -241 c41 -11 77 -24 80 -28 3 -4 25 -19 50 -33 79 -46 138 -113 188 -213
101 -201 76 -419 -66 -579 -42 -48 -152 -131 -206 -156 -57 -25 -181 -67 -229
-75 l-37 -7 22 48 c33 73 32 228 -1 301 -26 59 -100 133 -157 159 -62 28 -205
25 -271 -5 -53 -24 -124 -90 -145 -136 -6 -14 -14 -25 -18 -25 -14 0 -16 144
-4 205 7 33 10 63 8 67 -2 3 0 9 6 13 5 3 10 14 10 23 0 13 -2 13 -16 -4 -14
-18 -15 -18 -4 4 6 12 15 22 19 22 5 0 14 14 20 32 9 24 8 34 -1 41 -10 6 -9
8 2 4 10 -2 24 15 42 51 25 49 73 115 118 163 26 28 133 95 187 118 104 43
268 47 403 10z m-956 -63 c-4 -24 -34 -57 -34 -38 0 7 5 12 11 12 6 0 9 10 7
23 -3 15 0 24 8 24 7 0 11 -9 8 -21z m33 -11 c0 -8 -4 -12 -9 -9 -4 3 -8 9 -8
15 0 5 4 9 8 9 5 0 9 -7 9 -15z m64 -38 c-10 -9 -11 -8 -5 6 3 10 9 15 12 12
3 -3 0 -11 -7 -18z m-57 -14 c3 -8 1 -11 -4 -8 -8 5 -15 -30 -11 -57 0 -4 -8
-5 -19 -3 -11 2 -22 -1 -26 -6 -3 -5 -2 -9 3 -8 31 5 34 -4 8 -21 -16 -11 -24
-20 -17 -20 6 0 12 -5 12 -11 0 -8 -5 -8 -15 1 -8 7 -12 16 -9 21 3 5 7 17 9
26 2 10 6 26 10 36 4 9 3 17 -3 17 -5 0 -12 -7 -16 -15 -3 -8 -11 -15 -18 -15
-10 0 -10 2 0 9 8 4 13 11 13 15 -3 18 0 23 14 23 8 0 15 -4 15 -9 0 -5 5 -6
10 -3 6 3 10 1 10 -6 0 -7 2 -10 5 -7 10 10 -7 58 -18 51 -5 -3 -7 -1 -4 5 9
14 44 4 51 -15z m36 18 c0 -6 -4 -12 -8 -15 -5 -3 -9 1 -9 9 0 8 4 15 9 15 4
0 8 -4 8 -9z m-24 -78 c-18 -33 -21 -26 -6 13 6 15 13 24 16 21 3 -3 -1 -18
-10 -34z m49 -3 c3 -5 2 -10 -4 -10 -5 0 -13 5 -16 10 -3 6 -2 10 4 10 5 0 13
-4 16 -10z m-29 -91 c-22 -18 -37 -16 -35 4 0 8 2 8 6 -1 4 -10 8 -10 19 -1
12 9 12 15 2 27 -12 13 -10 14 8 2 l22 -13 -22 -18z m-47 18 c-2 -1 -12 -9
-22 -16 -15 -12 -17 -12 -11 3 3 9 13 16 22 16 8 0 13 -1 11 -3z m68 -119 c-3
-8 -6 -5 -6 6 -1 11 2 17 5 13 3 -3 4 -12 1 -19z m46 -21 c3 -8 -1 -14 -9 -14
-15 0 -18 9 -7 20 9 9 10 9 16 -6z m-40 -25 c3 7 6 3 6 -9 1 -28 -1 -28 -25
-1 -13 16 -14 19 -2 10 13 -10 17 -10 21 0z m47 -30 c0 -10 -6 -19 -14 -19
-11 0 -12 4 -3 19 7 10 13 18 14 18 2 0 3 -8 3 -18z m-263 -77 c13 -4 21 -14
20 -24 -1 -9 3 -18 8 -19 28 -10 47 -42 24 -42 -5 0 -7 5 -3 12 4 6 3 8 -3 5
-5 -3 -9 -29 -9 -57 1 -27 -2 -50 -6 -50 -5 0 -8 12 -9 28 0 24 -1 25 -9 7 -5
-11 -9 -14 -9 -6 -1 9 -9 12 -25 9 -15 -3 -27 1 -34 13 -13 20 -6 49 10 49 6
0 8 7 4 15 -3 8 -2 14 2 14 21 -3 32 2 26 13 -5 7 -3 8 6 3 8 -5 11 -3 8 6 -3
8 -15 13 -28 11 -13 -2 -20 1 -16 6 3 6 0 13 -6 16 -17 7 21 0 49 -9z m213 7
c0 -4 -9 -8 -20 -8 -11 0 -20 4 -20 8 0 4 9 8 20 8 11 0 20 -4 20 -8z m-64
-48 c1 -9 0 -13 -4 -10 -3 4 -7 14 -8 22 -1 9 0 13 4 10 3 -4 7 -14 8 -22z
m92 -3 c11 -7 10 -9 -3 -14 -9 -4 -14 -3 -10 2 3 5 -1 12 -7 14 -7 3 -8 6 -3
6 6 0 16 -3 23 -8z m-114 -26 c3 -9 0 -15 -8 -15 -8 0 -16 7 -20 15 -3 9 0 15
8 15 8 0 16 -7 20 -15z m56 5 c-13 -9 -13 -10 0 -10 12 0 12 -2 2 -9 -7 -4
-14 -18 -15 -29 -1 -12 -5 -22 -10 -22 -4 0 -5 -4 -2 -10 3 -5 2 -10 -3 -10
-6 0 -9 11 -8 24 0 13 4 22 9 19 4 -2 8 3 8 11 1 9 3 21 4 26 1 6 3 12 4 15 0
3 7 5 14 5 8 0 7 -4 -3 -10z m-90 -65 c-13 -16 -46 -12 -42 6 2 7 11 18 20 25
14 10 19 10 25 -2 5 -9 4 -21 -3 -29z m125 25 c3 -5 -1 -10 -10 -10 -9 0 -13
5 -10 10 3 6 8 10 10 10 2 0 7 -4 10 -10z m33 -15 c-3 -3 -9 2 -12 12 -6 14
-5 15 5 6 7 -7 10 -15 7 -18z m-128 -19 c0 -3 -4 -8 -10 -11 -5 -3 -10 -1 -10
4 0 6 5 11 10 11 6 0 10 -2 10 -4z m-45 -34 c-3 -3 -11 0 -18 7 -9 10 -8 11 6
5 10 -3 15 -9 12 -12z m103 -4 c-3 -11 -45 -36 -65 -38 -11 -1 -12 29 -2 36 5
3 8 2 7 -3 -2 -4 2 -9 7 -9 6 -1 9 2 8 7 -2 4 3 6 11 3 8 -3 17 -1 21 5 9 15
16 14 13 -1z m499 -15 c119 -60 107 -273 -19 -339 -89 -46 -223 23 -248 128
-28 115 12 188 130 232 27 10 98 -1 137 -21z m-601 -8 c17 -16 14 -18 -10 -9
-9 3 -16 10 -16 15 0 13 9 11 26 -6z m118 -44 c4 -5 -3 -7 -14 -4 -23 6 -26
13 -6 13 8 0 17 -4 20 -9z m-164 -11 c0 -5 -5 -10 -11 -10 -6 0 -9 -7 -5 -15
3 -8 1 -15 -4 -15 -11 0 -13 11 -4 34 7 18 24 22 24 6z m44 -8 c2 -4 -4 -9
-15 -9 -10 -1 -19 2 -19 8 0 11 27 12 34 1z m16 -32 c-8 -5 -17 -7 -19 -4 -3
3 1 9 9 14 8 5 17 7 19 4 3 -3 -1 -9 -9 -14z m-85 -30 c3 -5 -1 -10 -10 -10
-9 0 -13 5 -10 10 3 6 8 10 10 10 2 0 7 -4 10 -10z m26 -19 c-9 -6 -10 -11 -2
-15 6 -4 16 -4 23 0 6 4 8 3 4 -4 -9 -14 -68 -10 -74 6 -2 6 1 12 8 12 6 0 8
-4 5 -10 -3 -5 -2 -10 2 -10 5 0 14 9 21 21 7 12 16 18 20 14 3 -3 0 -10 -7
-14z m-121 -31 c6 9 11 6 20 -10 10 -19 9 -25 -10 -44 -13 -11 -20 -15 -16 -8
5 8 0 12 -14 12 -12 0 -18 5 -15 10 3 6 0 10 -9 10 -8 0 -17 -6 -19 -12 -4 -8
-6 -9 -6 -2 -1 6 5 17 13 23 11 9 18 8 32 -6 17 -17 17 -17 11 12 -3 17 -4 24
0 16 4 -10 7 -11 13 -1z m71 -41 c-5 -13 -10 -19 -10 -12 -1 15 10 45 15 40 3
-2 0 -15 -5 -28z m-17 -54 c-8 -19 -35 -28 -48 -15 -7 7 -7 10 -1 9 18 -4 45
13 38 24 -3 6 -1 7 5 3 6 -4 9 -13 6 -21z m-93 -112 c-12 -20 -14 -14 -5 12 4
9 9 14 11 11 3 -2 0 -13 -6 -23z m2 -56 c-7 -11 -23 2 -23 19 0 12 2 12 14 2
8 -7 12 -16 9 -21z m66 0 c0 -9 -2 -9 -6 1 -2 6 -8 10 -13 7 -4 -3 -11 2 -14
10 -4 13 -2 14 14 5 11 -6 20 -16 19 -23z m-129 19 c0 -2 -7 -6 -15 -10 -8 -3
-15 -1 -15 4 0 6 7 10 15 10 8 0 15 -2 15 -4z m80 -71 c0 -2 -9 -3 -19 -2 -11
0 -18 5 -15 9 4 6 34 0 34 -7z m-44 -27 c4 -7 4 -10 -1 -6 -4 4 -15 2 -24 -5
-14 -11 -14 -10 -2 6 16 20 18 21 27 5z m-99 -58 c1 -11 4 -24 5 -29 2 -5 -1
-8 -7 -7 -5 0 -9 5 -7 10 1 4 -3 14 -9 22 -9 11 -9 14 0 14 7 0 9 5 5 13 -4 6
-3 9 1 4 5 -4 10 -16 12 -27z m19 -115 c-1 -8 -5 -17 -8 -21 -5 -4 -4 16 1 34
3 9 9 -1 7 -13z m2069 -418 c80 -19 111 -43 141 -110 14 -33 27 -81 29 -107 7
-132 -131 -254 -251 -222 -136 37 -193 157 -149 317 20 74 45 99 123 120 59
16 48 16 107 2z"/>
<path d="M1387 3393 c-10 -10 -8 -25 2 -18 6 3 14 -2 19 -12 8 -13 6 -21 -6
-31 -15 -11 -14 -12 5 -3 15 8 20 17 16 31 -3 11 -10 20 -15 20 -5 0 -6 5 -3
10 7 11 -8 14 -18 3z"/>
<path d="M1355 3350 c3 -6 1 -10 -5 -10 -6 0 -9 -4 -5 -10 6 -10 35 -2 35 10
0 4 -7 11 -16 14 -8 3 -12 2 -9 -4z"/>
<path d="M1465 3330 c-3 -5 1 -10 10 -10 9 0 13 5 10 10 -3 6 -8 10 -10 10 -2
0 -7 -4 -10 -10z"/>
<path d="M1310 3039 c0 -5 5 -7 10 -4 6 3 10 8 10 11 0 2 -4 4 -10 4 -5 0 -10
-5 -10 -11z"/>
<path d="M1496 4205 c5 -13 9 -13 23 -3 9 7 18 14 20 15 2 2 -8 3 -22 3 -20 0
-25 -4 -21 -15z"/>
<path d="M1455 4190 c-10 -11 -15 -23 -12 -27 7 -6 36 25 37 40 0 11 -6 8 -25
-13z"/>
<path d="M1520 4190 c0 -5 5 -10 11 -10 5 0 7 5 4 10 -3 6 -8 10 -11 10 -2 0
-4 -4 -4 -10z"/>
<path d="M1500 4172 c0 -6 -6 -10 -12 -8 -7 1 -10 1 -5 -1 4 -3 5 -9 1 -14 -3
-5 -1 -9 4 -9 11 0 25 30 17 38 -3 3 -5 0 -5 -6z"/>
<path d="M1445 4120 c-6 -9 14 -15 44 -11 8 2 10 -2 5 -10 -4 -8 -3 -10 4 -5
7 4 12 2 12 -3 0 -17 17 -13 24 5 4 12 2 15 -9 11 -8 -4 -19 2 -25 11 -8 13
-13 14 -17 4 -4 -9 -8 -10 -18 -2 -9 8 -15 8 -20 0z"/>
<path d="M1440 4096 c0 -2 8 -10 18 -17 15 -13 16 -12 3 4 -13 16 -21 21 -21
13z"/>
<path d="M1496 4007 c3 -10 9 -15 12 -12 3 3 0 11 -7 18 -10 9 -11 8 -5 -6z"/>
<path d="M1350 3979 c0 -5 5 -7 10 -4 6 3 10 8 10 11 0 2 -4 4 -10 4 -5 0 -10
-5 -10 -11z"/>
<path d="M1361 3934 c0 -11 3 -14 6 -6 3 7 2 16 -1 19 -3 4 -6 -2 -5 -13z"/>
<path d="M1410 3943 c0 -16 17 -26 25 -13 4 6 11 8 16 5 5 -4 9 -1 9 4 0 6 -7
11 -15 11 -8 0 -15 -6 -15 -12 0 -9 -4 -8 -10 2 -6 9 -10 10 -10 3z"/>
<path d="M1360 3859 c0 -5 -5 -7 -11 -3 -8 5 -9 2 -1 -12 9 -15 7 -21 -11 -31
-17 -10 -18 -12 -5 -13 9 0 20 6 25 13 9 15 16 57 8 57 -3 0 -5 -5 -5 -11z"/>
<path d="M1375 3770 c-3 -5 1 -10 10 -10 9 0 13 5 10 10 -3 6 -8 10 -10 10 -2
0 -7 -4 -10 -10z"/>
<path d="M1336 3752 c-3 -5 1 -9 9 -9 8 0 15 4 15 9 0 4 -4 8 -9 8 -6 0 -12
-4 -15 -8z"/>
<path d="M1394 3739 c-3 -5 6 -8 20 -7 26 2 26 10 1 14 -8 1 -17 -2 -21 -7z"/>
<path d="M1307 3729 c7 -7 15 -10 18 -7 3 3 -2 9 -12 12 -14 6 -15 5 -6 -5z"/>
<path d="M1353 3715 c0 -8 9 -15 20 -15 10 0 17 5 15 13 -7 18 -35 20 -35 2z"/>
<path d="M1246 3687 c3 -10 9 -15 12 -12 3 3 0 11 -7 18 -10 9 -11 8 -5 -6z"/>
<path d="M1340 3685 c0 -5 5 -17 10 -25 5 -8 10 -10 10 -5 0 6 -5 17 -10 25
-5 8 -10 11 -10 5z"/>
<path d="M1350 3630 c0 -5 5 -10 11 -10 5 0 7 5 4 10 -3 6 -8 10 -11 10 -2 0
-4 -4 -4 -10z"/>
<path d="M1404 3628 c-4 -7 -3 -8 4 -4 8 5 12 0 12 -13 0 -15 5 -19 18 -14 12
4 14 3 7 -5 -13 -14 -56 -19 -74 -8 -8 6 -7 -1 4 -18 10 -14 22 -26 29 -25 7
0 6 2 -1 6 -7 2 -13 9 -13 14 0 6 6 9 13 7 16 -3 57 12 57 21 0 8 -38 51 -45
51 -2 0 -7 -5 -11 -12z"/>
<path d="M1317 3599 c7 -7 15 -10 18 -7 3 3 -2 9 -12 12 -14 6 -15 5 -6 -5z"/>
<path d="M1320 3533 c0 -6 5 -15 11 -18 6 -4 8 -13 6 -19 -3 -7 1 -13 9 -13 7
0 11 4 8 9 -3 4 0 8 6 8 6 0 8 5 5 10 -4 6 -10 8 -15 5 -5 -3 -13 3 -19 12 -6
10 -11 13 -11 6z"/>
<path d="M1515 3510 c3 -5 8 -10 11 -10 2 0 4 5 4 10 0 6 -5 10 -11 10 -5 0
-7 -4 -4 -10z"/>
<path d="M1303 3496 c3 -8 2 -17 -4 -20 -5 -2 -4 -3 2 -2 15 3 21 36 7 36 -6
0 -8 -6 -5 -14z"/>
<path d="M1236 3458 c3 -5 10 -6 15 -3 13 9 11 12 -6 12 -8 0 -12 -4 -9 -9z"/>
<path d="M1290 3340 c-9 -6 -10 -10 -3 -10 6 0 15 5 18 10 8 12 4 12 -15 0z"/>
<path d="M1260 3270 c0 -5 4 -10 9 -10 16 0 31 -56 18 -69 -8 -8 -8 -11 0 -11
13 0 20 22 21 65 1 24 -1 26 -7 11 -7 -19 -8 -19 -13 2 -6 22 -28 31 -28 12z"/>
<path d="M1245 3200 c10 -11 20 -20 23 -20 3 0 -3 9 -13 20 -10 11 -20 20 -23
20 -3 0 3 -9 13 -20z"/>
<path d="M1310 3160 c0 -20 -1 -20 -25 -4 -20 13 -25 14 -23 3 2 -8 -5 -14
-14 -14 -27 0 -34 -15 -7 -16 l24 0 -22 -9 c-13 -5 -23 -12 -23 -15 0 -4 4 -4
8 -1 22 14 76 16 84 4 7 -10 8 -10 7 2 -3 28 1 41 10 35 5 -3 12 -1 16 4 3 6
-4 15 -15 21 -17 9 -20 8 -20 -10z m-20 -18 c0 -13 -12 -22 -22 -16 -10 6 -1
24 13 24 5 0 9 -4 9 -8z"/>
<path d="M1195 2979 c-4 -6 -5 -12 -2 -15 2 -3 7 2 10 11 7 17 1 20 -8 4z"/>
<path d="M1131 2823 c3 -20 -2 -27 -11 -13 -7 12 -9 10 -7 -7 0 -12 3 -20 6
-18 9 10 30 -17 24 -33 -4 -14 -3 -15 6 -2 6 9 7 18 1 24 -6 6 -5 14 1 22 6 7
8 18 4 24 -7 12 -26 14 -24 3z"/>
</g>
</svg>
